<svg version="1.1" id="Layer_1" xmlns="http://www.w3.org/2000/svg" xmlns:xlink="http://www.w3.org/1999/xlink" x="0px" y="0px"
	 width="100%" viewBox="0 0 512 512" enable-background="new 0 0 512 512" xml:space="preserve">
<path fill="#000000" opacity="1.000000" stroke="none" 
	d="
M0.999999,450.000000 
	C1.000000,300.333313 1.000000,150.666641 1.000000,1.000000 
	C21.097057,1.000000 41.079872,1.000000 61.825439,1.312992 
	C61.228848,2.417833 59.849251,3.177114 58.513847,4.007472 
	C54.021271,6.800966 48.999634,9.026140 45.166870,12.543622 
	C34.935013,21.933819 30.835487,33.708057 30.758406,47.845070 
	C30.640978,69.381935 50.034340,90.701271 72.814697,91.109657 
	C76.240494,91.171066 79.967667,92.079185 82.983253,93.676109 
	C89.194313,96.965248 90.830658,103.145355 90.953781,109.643410 
	C91.133682,119.137489 90.909164,128.639084 91.073227,138.133743 
	C91.107819,140.135468 91.701996,142.332153 92.683632,144.075699 
	C96.040855,150.038651 101.480103,151.476379 108.013367,151.083710 
	C115.120689,150.656570 120.972038,145.196884 120.991013,138.117508 
	C121.023628,125.954140 121.260635,113.783516 120.929321,101.629089 
	C120.570190,88.454071 114.071625,78.224739 104.158775,70.030464 
	C95.287727,62.697369 84.500732,61.077843 73.498886,59.941452 
	C63.909466,58.950951 58.611469,46.762669 63.790096,38.669079 
	C67.805679,32.393196 73.935806,31.083300 80.523216,31.045732 
	C109.010811,30.883268 137.499359,30.888947 166.451538,30.909630 
	C176.888901,30.990562 186.868637,30.781349 196.833389,31.077223 
	C203.204208,31.266386 207.584396,28.295055 209.859665,22.973778 
	C211.977264,18.021229 212.342285,12.512733 209.028870,7.592968 
	C207.487549,5.304401 205.684433,3.192171 204.000000,1.000002 
	C265.020905,1.000000 326.041779,1.000000 387.826782,1.289248 
	C381.699554,6.261787 380.997253,13.416423 379.634277,20.912863 
	C378.731506,25.878099 375.096039,30.980030 371.339569,34.641560 
	C365.957825,39.887287 358.441833,40.972069 351.034088,40.981552 
	C317.713837,41.024216 284.393524,40.999950 251.073212,41.000927 
	C249.740448,41.000965 248.333740,40.731201 247.085831,41.059635 
	C220.938599,47.941204 207.140732,68.027100 211.325226,94.870171 
	C214.430573,114.790550 232.151581,131.477615 254.931488,131.017014 
	C260.593597,130.902512 266.266632,130.825882 271.922974,131.040283 
	C280.604675,131.369339 289.276672,134.138672 290.115784,145.514832 
	C290.428833,149.758926 290.573242,154.020935 291.058105,158.244507 
	C291.289612,160.260971 291.822174,162.372574 292.761292,164.155029 
	C296.281921,170.837189 302.461884,171.476456 309.097778,171.017349 
	C314.906921,170.615448 320.670319,165.434967 320.760712,160.543228 
	C320.961823,149.661057 322.662689,138.563080 318.025055,127.958466 
	C311.551361,113.155495 295.576843,100.985733 279.545807,100.944687 
	C270.810852,100.922325 262.043884,100.698280 253.352158,99.901733 
	C243.824905,99.028603 238.660690,86.612434 243.892349,78.566391 
	C247.954453,72.319077 254.089172,71.065468 260.658569,71.046097 
	C294.478394,70.946388 328.298706,71.011612 362.118744,70.966400 
	C363.867523,70.964066 365.640289,70.584290 367.360352,70.196053 
	C390.926178,64.877075 405.109009,49.818035 410.435974,26.791344 
	C411.971924,20.151911 413.193359,12.366153 408.020264,5.948932 
	C406.686432,4.294264 405.340424,2.649380 404.000000,1.000003 
	C440.300995,1.000000 476.602020,1.000000 513.000000,1.000000 
	C513.000000,128.354218 513.000000,255.708450 512.663330,383.759216 
	C508.396210,379.781647 502.833679,379.113831 497.403137,379.093018 
	C484.419678,379.043182 471.536316,379.036530 458.564301,381.678009 
	C443.620697,384.720917 429.651428,389.380188 417.115784,397.991791 
	C404.316193,406.784637 394.821747,418.353973 388.646057,432.778625 
	C380.820557,415.164551 369.065247,401.329376 352.005249,392.579346 
	C328.501526,380.524323 303.419098,376.324921 277.195618,379.023682 
	C267.313629,380.040680 264.496338,382.494263 264.075226,391.159210 
	C263.227386,408.605133 264.632874,425.893860 268.505432,442.929626 
	C252.395935,442.953705 236.752548,442.924561 221.072052,442.492981 
	C222.357986,435.847168 223.694534,429.606628 225.001663,423.359924 
	C229.598816,401.390564 234.203583,379.422821 238.771347,357.447357 
	C242.873688,337.711090 246.919815,317.963165 251.011490,298.224670 
	C255.536713,276.394714 260.188049,254.590271 264.582794,232.734161 
	C266.940491,221.008957 269.025116,209.222992 270.938568,197.416702 
	C271.944733,191.208542 268.487823,186.721832 263.305969,184.292526 
	C258.282715,181.937576 252.772598,181.908524 247.621857,184.879196 
	C241.398438,188.468536 240.789368,194.779648 239.519424,200.891495 
	C235.085831,222.228790 230.467590,243.527695 226.032013,264.864563 
	C220.495605,291.496979 215.101868,318.159058 209.587387,344.796051 
	C205.435013,364.853607 201.204803,384.895142 196.979965,404.937653 
	C194.311646,417.596008 191.589401,430.243042 188.461121,442.939697 
	C185.723755,442.954712 183.416580,442.925140 181.067795,442.435944 
	C181.018204,347.024719 181.008316,252.073135 181.005325,157.121536 
	C181.005035,147.925583 175.331543,142.643082 165.541397,143.094543 
	C156.313095,143.056778 151.004639,148.312592 151.003616,157.080856 
	C150.996689,216.375641 151.010635,275.670410 150.996048,334.965210 
	C150.987198,370.940796 150.939377,406.916412 150.477036,442.939514 
	C147.726837,442.955261 145.408661,442.923462 143.034012,442.498383 
	C142.666550,441.351501 142.226303,440.624695 142.063553,439.840302 
	C138.449600,422.422821 134.893646,404.993286 131.269867,387.577881 
	C127.213058,368.081268 123.042961,348.608154 119.026756,329.103271 
	C114.516090,307.197021 110.169670,285.256989 105.664436,263.349640 
	C101.160759,241.449814 96.258675,219.627350 92.089035,197.665070 
	C89.402573,183.514984 76.694283,179.116898 66.892311,185.570145 
	C61.336456,189.227921 59.416775,196.544418 61.182919,204.631027 
	C66.847801,230.568604 72.470985,256.515961 77.942390,282.494904 
	C82.744965,305.298126 87.298790,328.153625 92.005493,350.977173 
	C95.296768,366.937073 98.695831,382.874725 101.981560,398.835754 
	C105.002777,413.511810 107.936859,428.205811 110.448547,442.939636 
	C78.179710,442.991608 46.371578,443.030579 14.563681,442.961487 
	C9.930562,442.951447 6.534746,444.743073 3.859922,448.426239 
	C3.281312,449.222931 1.972484,449.489349 0.999999,450.000000 
z"/>
<path fill="#A2E786" opacity="1.000000" stroke="none" 
	d="
M268.971588,442.876404 
	C264.632874,425.893860 263.227386,408.605133 264.075226,391.159210 
	C264.496338,382.494263 267.313629,380.040680 277.195618,379.023682 
	C303.419098,376.324921 328.501526,380.524323 352.005249,392.579346 
	C369.065247,401.329376 380.820557,415.164551 388.649414,433.259583 
	C389.002991,460.195312 389.001495,486.597656 389.000000,513.000000 
	C375.979095,513.000000 362.958221,513.000000 349.764130,512.647888 
	C349.238922,511.952240 348.922577,511.357330 348.529755,511.301605 
	C335.830963,509.500305 323.824310,505.516632 312.134827,499.627533 
	C311.036377,498.613190 310.190521,497.781494 309.197784,497.200867 
	C296.092285,489.535614 285.649292,479.221954 278.828461,465.622894 
	C275.129486,458.248047 272.231110,450.471649 268.971588,442.876404 
z"/>
<path fill="#00CB75" opacity="1.000000" stroke="none" 
	d="
M389.468658,513.000000 
	C389.001495,486.597656 389.002991,460.195312 389.001160,433.312012 
	C394.821747,418.353973 404.316193,406.784637 417.115784,397.991791 
	C429.651428,389.380188 443.620697,384.720917 458.564301,381.678009 
	C471.536316,379.036530 484.419678,379.043182 497.403137,379.093018 
	C502.833679,379.113831 508.396210,379.781647 512.663330,384.227875 
	C513.000000,398.354218 513.000000,412.708466 512.599609,427.373901 
	C510.799561,433.134216 509.441132,438.594299 507.992706,444.030396 
	C502.505249,464.625458 491.935791,481.833679 474.268738,494.236511 
	C461.044922,503.519989 446.093689,508.330719 430.341400,511.072998 
	C429.475342,511.223724 428.776611,512.335571 428.000000,513.000000 
	C415.312439,513.000000 402.624878,513.000000 389.468658,513.000000 
z"/>
<path fill="#E1EBF0" opacity="1.000000" stroke="none" 
	d="
M403.533142,1.000003 
	C405.340424,2.649380 406.686432,4.294264 408.020264,5.948932 
	C413.193359,12.366153 411.971924,20.151911 410.435974,26.791344 
	C405.109009,49.818035 390.926178,64.877075 367.360352,70.196053 
	C365.640289,70.584290 363.867523,70.964066 362.118744,70.966400 
	C328.298706,71.011612 294.478394,70.946388 260.658569,71.046097 
	C254.089172,71.065468 247.954453,72.319077 243.892349,78.566391 
	C238.660690,86.612434 243.824905,99.028603 253.352158,99.901733 
	C262.043884,100.698280 270.810852,100.922325 279.545807,100.944687 
	C295.576843,100.985733 311.551361,113.155495 318.025055,127.958466 
	C322.662689,138.563080 320.961823,149.661057 320.760712,160.543228 
	C320.670319,165.434967 314.906921,170.615448 309.097778,171.017349 
	C302.461884,171.476456 296.281921,170.837189 292.761292,164.155029 
	C291.822174,162.372574 291.289612,160.260971 291.058105,158.244507 
	C290.573242,154.020935 290.428833,149.758926 290.115784,145.514832 
	C289.276672,134.138672 280.604675,131.369339 271.922974,131.040283 
	C266.266632,130.825882 260.593597,130.902512 254.931488,131.017014 
	C232.151581,131.477615 214.430573,114.790550 211.325226,94.870171 
	C207.140732,68.027100 220.938599,47.941204 247.085831,41.059635 
	C248.333740,40.731201 249.740448,41.000965 251.073212,41.000927 
	C284.393524,40.999950 317.713837,41.024216 351.034088,40.981552 
	C358.441833,40.972069 365.957825,39.887287 371.339569,34.641560 
	C375.096039,30.980030 378.731506,25.878099 379.634277,20.912863 
	C380.997253,13.416423 381.699554,6.261787 388.295441,1.289248 
	C393.022095,1.000000 398.044189,1.000000 403.533142,1.000003 
z"/>
<path fill="#FFB655" opacity="1.000000" stroke="none" 
	d="
M143.090485,442.891602 
	C145.408661,442.923462 147.726837,442.955261 150.946381,442.976654 
	C156.559204,443.041229 161.270645,443.116180 165.988007,443.647827 
	C165.995941,467.069641 165.997971,490.034821 166.000000,513.000000 
	C124.645775,513.000000 83.291542,513.000000 41.761520,512.677795 
	C41.255726,511.986145 40.992008,511.404541 40.586205,511.277771 
	C21.584377,505.342041 8.817913,493.144012 2.882396,473.985016 
	C2.734625,473.508057 1.648493,473.321838 1.000000,473.000000 
	C1.000000,465.645752 1.000000,458.291504 0.999999,450.468628 
	C1.972484,449.489349 3.281312,449.222931 3.859922,448.426239 
	C6.534746,444.743073 9.930562,442.951447 14.563681,442.961487 
	C46.371578,443.030579 78.179710,442.991608 110.920425,442.976898 
	C122.265549,442.941467 132.678009,442.916534 143.090485,442.891602 
z"/>
<path fill="#E68A44" opacity="1.000000" stroke="none" 
	d="
M166.468658,513.000000 
	C165.997971,490.034821 165.995941,467.069641 165.995544,443.551270 
	C165.997162,442.998047 166.012558,442.804962 166.473877,442.876129 
	C171.659943,442.930054 176.384674,442.912811 181.109421,442.895569 
	C183.416580,442.925140 185.723755,442.954712 188.935486,442.975006 
	C200.263092,442.942291 210.686142,442.918884 221.109177,442.895447 
	C236.752548,442.924561 252.395935,442.953705 268.505432,442.929626 
	C272.231110,450.471649 275.129486,458.248047 278.828461,465.622894 
	C285.649292,479.221954 296.092285,489.535614 309.197784,497.200867 
	C310.190521,497.781494 311.036377,498.613190 311.951599,499.952576 
	C305.480774,504.060577 298.994537,507.518250 292.558228,511.066467 
	C291.887390,511.436249 291.512299,512.342590 291.000000,513.000000 
	C249.645767,513.000000 208.291550,513.000000 166.468658,513.000000 
z"/>
<path fill="#FFF5F5" opacity="1.000000" stroke="none" 
	d="
M165.987549,30.833452 
	C137.499359,30.888947 109.010811,30.883268 80.523216,31.045732 
	C73.935806,31.083300 67.805679,32.393196 63.790096,38.669079 
	C58.611469,46.762669 63.909466,58.950951 73.498886,59.941452 
	C84.500732,61.077843 95.287727,62.697369 104.158775,70.030464 
	C114.071625,78.224739 120.570190,88.454071 120.929321,101.629089 
	C121.260635,113.783516 121.023628,125.954140 120.991013,138.117508 
	C120.972038,145.196884 115.120689,150.656570 108.013367,151.083710 
	C101.480103,151.476379 96.040855,150.038651 92.683632,144.075699 
	C91.701996,142.332153 91.107819,140.135468 91.073227,138.133743 
	C90.909164,128.639084 91.133682,119.137489 90.953781,109.643410 
	C90.830658,103.145355 89.194313,96.965248 82.983253,93.676109 
	C79.967667,92.079185 76.240494,91.171066 72.814697,91.109657 
	C50.034340,90.701271 30.640978,69.381935 30.758406,47.845070 
	C30.835487,33.708057 34.935013,21.933819 45.166870,12.543622 
	C48.999634,9.026140 54.021271,6.800966 58.513847,4.007472 
	C59.849251,3.177114 61.228848,2.417833 62.294098,1.312992 
	C96.354225,1.000000 130.708450,1.000000 165.531174,1.468657 
	C165.995636,11.569360 165.991592,21.201406 165.987549,30.833452 
z"/>
<path fill="#000000" opacity="1.000000" stroke="none" 
	d="
M428.468658,513.000000 
	C428.776611,512.335571 429.475342,511.223724 430.341400,511.072998 
	C446.093689,508.330719 461.044922,503.519989 474.268738,494.236511 
	C491.935791,481.833679 502.505249,464.625458 507.992706,444.030396 
	C509.441132,438.594299 510.799561,433.134216 512.599609,427.842560 
	C513.000000,456.260223 513.000000,484.520477 513.000000,513.000000 
	C484.979492,513.000000 456.958405,513.000000 428.468658,513.000000 
z"/>
<path fill="#E1EBF0" opacity="1.000000" stroke="none" 
	d="
M166.451538,30.909630 
	C165.991592,21.201406 165.995636,11.569360 165.999832,1.468657 
	C178.354233,1.000000 190.708450,1.000000 203.531342,1.000002 
	C205.684433,3.192171 207.487549,5.304401 209.028870,7.592968 
	C212.342285,12.512733 211.977264,18.021229 209.859665,22.973778 
	C207.584396,28.295055 203.204208,31.266386 196.833389,31.077223 
	C186.868637,30.781349 176.888901,30.990562 166.451538,30.909630 
z"/>
<path fill="#000000" opacity="1.000000" stroke="none" 
	d="
M1.000000,473.468658 
	C1.648493,473.321838 2.734625,473.508057 2.882396,473.985016 
	C8.817913,493.144012 21.584377,505.342041 40.586205,511.277771 
	C40.992008,511.404541 41.255726,511.986145 41.292862,512.677795 
	C27.740011,513.000000 14.480022,513.000000 1.000000,513.000000 
	C1.000000,499.979919 1.000000,486.958618 1.000000,473.468658 
z"/>
<path fill="#000000" opacity="1.000000" stroke="none" 
	d="
M291.468628,513.000000 
	C291.512299,512.342590 291.887390,511.436249 292.558228,511.066467 
	C298.994537,507.518250 305.480774,504.060577 312.135925,500.251923 
	C323.824310,505.516632 335.830963,509.500305 348.529755,511.301605 
	C348.922577,511.357330 349.238922,511.952240 349.295471,512.647888 
	C329.979095,513.000000 310.958221,513.000000 291.468628,513.000000 
z"/>
<path fill="#9E5015" opacity="1.000000" stroke="none" 
	d="
M221.072052,442.492981 
	C210.686142,442.918884 200.263092,442.942291 189.365692,442.930420 
	C191.589401,430.243042 194.311646,417.596008 196.979965,404.937653 
	C201.204803,384.895142 205.435013,364.853607 209.587387,344.796051 
	C215.101868,318.159058 220.495605,291.496979 226.032013,264.864563 
	C230.467590,243.527695 235.085831,222.228790 239.519424,200.891495 
	C240.789368,194.779648 241.398438,188.468536 247.621857,184.879196 
	C252.772598,181.908524 258.282715,181.937576 263.305969,184.292526 
	C268.487823,186.721832 271.944733,191.208542 270.938568,197.416702 
	C269.025116,209.222992 266.940491,221.008957 264.582794,232.734161 
	C260.188049,254.590271 255.536713,276.394714 251.011490,298.224670 
	C246.919815,317.963165 242.873688,337.711090 238.771347,357.447357 
	C234.203583,379.422821 229.598816,401.390564 225.001663,423.359924 
	C223.694534,429.606628 222.357986,435.847168 221.072052,442.492981 
z"/>
<path fill="#CB671B" opacity="1.000000" stroke="none" 
	d="
M143.034012,442.498352 
	C132.678009,442.916534 122.265549,442.941467 111.381203,442.929138 
	C107.936859,428.205811 105.002777,413.511810 101.981560,398.835754 
	C98.695831,382.874725 95.296768,366.937073 92.005493,350.977173 
	C87.298790,328.153625 82.744965,305.298126 77.942390,282.494904 
	C72.470985,256.515961 66.847801,230.568604 61.182919,204.631027 
	C59.416775,196.544418 61.336456,189.227921 66.892311,185.570145 
	C76.694283,179.116898 89.402573,183.514984 92.089035,197.665070 
	C96.258675,219.627350 101.160759,241.449814 105.664436,263.349640 
	C110.169670,285.256989 114.516090,307.197021 119.026756,329.103271 
	C123.042961,348.608154 127.213058,368.081268 131.269867,387.577881 
	C134.893646,404.993286 138.449600,422.422821 142.063553,439.840302 
	C142.226303,440.624695 142.666550,441.351501 143.034012,442.498352 
z"/>
<path fill="#CB671B" opacity="1.000000" stroke="none" 
	d="
M165.989624,443.094604 
	C161.270645,443.116180 156.559204,443.041229 151.378403,442.929138 
	C150.939377,406.916412 150.987198,370.940796 150.996048,334.965210 
	C151.010635,275.670410 150.996689,216.375641 151.003616,157.080856 
	C151.004639,148.312592 156.313095,143.056778 165.557129,143.551880 
	C165.993515,243.649857 166.003036,343.227417 166.012558,442.804962 
	C166.012558,442.804962 165.997162,442.998047 165.989624,443.094604 
z"/>
<path fill="#9E5015" opacity="1.000000" stroke="none" 
	d="
M166.473877,442.876129 
	C166.003036,343.227417 165.993515,243.649857 165.968262,143.614990 
	C175.331543,142.643082 181.005035,147.925583 181.005325,157.121536 
	C181.008316,252.073135 181.018204,347.024719 181.067795,442.435944 
	C176.384674,442.912811 171.659943,442.930054 166.473877,442.876129 
z"/>
</svg>