<svg height="48" viewBox="0 0 48 48" width="48" xmlns="http://www.w3.org/2000/svg">
<path d="m0 0h48v48h-48z" fill="none"/>
<path d="m19.9 27.3-.2-1.7a15.6 15.6 0 0 0 -7.4 4.9 1.9 1.9 0 0 0 -.4 1.2 2 2 0 0 0 .4 1.3 2 2 0 0 0 3.1 0 11.2 11.2 0 0 1 5.3-3.5 3.5 3.5 0 0 1 -.8-2.2z" fill="#67E8F9"/>
<path d="m28.3 25.6-.2 1.7a3.5 3.5 0 0 1 -.8 2.2 11.2 11.2 0 0 1 5.3 3.5 2 2 0 0 0 3.1 0 2.1 2.1 0 0 0 0-2.5 15.6 15.6 0 0 0 -7.4-4.9z" fill="#67E8F9"/>
<path d="m19.1 17.5a23 23 0 0 0 -11.6 6.4 2 2 0 0 0 -.6 1.4 2.8 2.8 0 0 0 .4 1.2 1.9 1.9 0 0 0 3 .2 18.8 18.8 0 0 1 9.1-5.1z" fill="#67E8F9"/>
<path d="m28.9 17.5-.3 4.1a18.8 18.8 0 0 1 9.1 5.1 1.9 1.9 0 0 0 3-.2 2 2 0 0 0 -.2-2.6 23 23 0 0 0 -11.6-6.4z" fill="#67E8F9"/>
<path d="m18.5 9.5a32 32 0 0 0 -15.9 7.9 2.1 2.1 0 0 0 -.2 2.7 2 2 0 0 0 3 .2 27.7 27.7 0 0 1 13.4-6.8z" fill="#67E8F9"/>
<path d="m45.4 17.4a32 32 0 0 0 -15.9-7.9l-.3 4a27.7 27.7 0 0 1 13.4 6.8 2 2 0 0 0 3-.2 2.1 2.1 0 0 0 -.2-2.7z" fill="#67E8F9"/>
<circle cx="24" cy="38" r="5" fill="#67E8F9"/>
<path d="m23.9 29h.2a1.9 1.9 0 0 0 2-1.9l1.6-20.1a3.7 3.7 0 1 0 -7.4 0l1.6 20.1a1.9 1.9 0 0 0 2 1.9z" fill="#67E8F9"/></svg>